<svg width="720" height="720" viewBox="0 0 720 720" fill="none" xmlns="http://www.w3.org/2000/svg">
<rect width="720" height="720" rx="50" fill="black"/>
<path d="M142.005 471.607C139.27 470.011 136.893 467.867 135.024 465.311C133.155 462.754 131.834 459.839 131.142 456.749C130.45 453.658 130.404 450.458 131.005 447.349C131.606 444.24 132.842 441.288 134.636 438.678L341.885 138.857C344.007 135.816 346.832 133.334 350.12 131.619C353.407 129.905 357.06 129.009 360.768 129.009C364.476 129.009 368.129 129.905 371.416 131.619C374.704 133.334 377.529 135.816 379.651 138.857L586.9 438.447C588.733 441.065 590 444.035 590.623 447.168C591.245 450.302 591.208 453.531 590.515 456.65C589.822 459.768 588.488 462.709 586.597 465.284C584.706 467.859 582.3 470.012 579.531 471.607L377.463 565.33C370.517 569.287 368.763 570.511 360.768 570.511C352.774 570.511 349.868 569.287 342.922 565.33L142.005 471.607Z" stroke="white" stroke-width="30" stroke-linecap="round" stroke-linejoin="round"/>
<path d="M360.768 128.955V568.209" stroke="white" stroke-width="30" stroke-linecap="round" stroke-linejoin="round"/>
</svg>
